<svg id="svg" version="1.1" xmlns="http://www.w3.org/2000/svg" xmlns:xlink="http://www.w3.org/1999/xlink" width="400" height="347.66666666666663" viewBox="0, 0, 400,347.66666666666663"><g id="svgg"><path id="path0" d="M110.974 0.834 C 81.442 8.944,71.839 47.642,85.292 104.327 L 86.220 108.236 84.527 108.661 C 75.816 110.847,59.283 117.122,48.500 122.335 C -6.839 149.087,-10.650 191.507,39.667 220.672 C 50.387 226.886,64.244 232.716,79.509 237.436 L 86.185 239.500 85.426 242.667 C 75.068 285.879,77.982 319.499,93.543 336.306 C 105.399 349.111,125.382 351.564,146.708 342.831 C 162.012 336.564,178.684 325.079,196.261 308.695 C 200.401 304.837,199.557 304.819,203.894 308.858 C 226.719 330.113,248.250 343.206,266.564 346.969 C 270.871 347.853,284.115 347.983,287.545 347.175 C 317.963 340.001,328.282 301.714,315.085 244.986 L 313.802 239.472 316.484 238.684 C 373.662 221.883,402.878 193.602,394.155 163.500 C 389.406 147.112,371.061 130.364,346.333 119.843 C 345.325 119.414,343.225 118.515,341.667 117.845 C 335.375 115.142,320.565 109.951,315.472 108.664 L 313.777 108.236 314.225 106.368 C 328.410 47.305,318.900 8.562,288.278 0.659 C 284.897 -0.213,271.184 -0.309,267.272 0.512 C 255.703 2.940,241.812 9.341,229.833 17.763 C 228.000 19.052,225.750 20.631,224.833 21.273 C 223.917 21.914,223.092 22.533,223.000 22.649 C 222.908 22.766,221.258 24.076,219.333 25.561 C 217.408 27.047,215.514 28.541,215.124 28.881 C 214.735 29.221,213.689 30.100,212.800 30.833 C 210.757 32.520,208.054 34.931,205.540 37.311 C 204.462 38.332,203.402 39.317,203.185 39.500 C 202.968 39.683,202.178 40.412,201.428 41.119 L 200.065 42.405 194.276 37.119 C 172.343 17.094,152.145 4.916,134.058 0.813 C 128.806 -0.378,115.345 -0.366,110.974 0.834 M129.833 17.648 C 140.046 19.862,151.762 25.755,164.833 35.249 C 170.374 39.274,179.548 46.985,184.809 52.040 L 187.800 54.913 186.357 56.540 C 181.752 61.732,178.147 65.893,175.704 68.833 C 174.182 70.667,172.618 72.542,172.230 73.000 C 171.253 74.153,163.865 83.704,161.833 86.442 C 160.917 87.677,159.398 89.708,158.458 90.955 C 157.518 92.203,156.353 93.821,155.870 94.552 L 154.991 95.880 149.245 96.464 C 135.289 97.880,109.041 102.128,103.634 103.844 C 102.980 104.051,101.420 98.011,99.687 88.563 C 90.505 38.510,101.944 11.601,129.833 17.648 M285.162 17.821 C 303.449 23.960,308.397 54.755,298.178 98.833 C 297.711 100.850,297.249 102.846,297.153 103.269 C 297.027 103.822,296.812 103.985,296.386 103.850 C 290.947 102.124,266.504 98.133,251.914 96.589 L 244.994 95.857 244.105 94.512 C 243.615 93.772,241.479 90.858,239.358 88.036 C 237.236 85.213,235.209 82.513,234.853 82.036 C 231.732 77.842,222.996 67.108,220.023 63.812 C 219.185 62.884,217.600 61.105,216.500 59.859 C 215.400 58.613,214.015 57.047,213.423 56.380 C 212.013 54.791,211.718 55.295,216.848 50.529 C 232.409 36.073,249.168 24.730,261.667 20.193 C 263.042 19.694,264.499 19.152,264.904 18.989 C 265.804 18.627,270.824 17.452,273.333 17.016 C 276.515 16.464,282.288 16.856,285.162 17.821 M204.531 72.583 C 211.056 80.013,214.959 84.754,222.134 93.969 C 222.446 94.369,222.006 94.405,219.167 94.210 C 214.852 93.915,185.165 93.913,180.867 94.209 L 177.568 94.435 179.032 92.468 C 179.837 91.385,180.575 90.425,180.672 90.333 C 180.769 90.242,181.970 88.744,183.341 87.004 C 186.972 82.397,193.197 74.959,196.026 71.846 C 196.865 70.922,198.051 69.604,198.663 68.917 C 200.109 67.289,199.604 66.974,204.531 72.583 M222.167 111.687 C 225.833 111.864,230.333 112.109,232.167 112.230 L 235.500 112.450 237.595 115.642 C 238.748 117.397,240.534 120.108,241.564 121.667 C 244.910 126.729,251.953 138.382,256.171 145.833 C 260.889 154.168,263.133 158.367,267.495 167.017 L 270.949 173.866 266.868 181.850 C 263.134 189.155,261.165 192.904,259.173 196.500 C 257.279 199.922,252.549 208.163,250.757 211.167 C 246.187 218.824,244.215 221.953,237.709 231.867 L 235.500 235.234 232.000 235.453 C 219.500 236.231,214.180 236.391,200.500 236.398 C 186.903 236.405,176.556 236.089,167.438 235.389 L 164.543 235.167 161.521 230.613 C 157.884 225.131,155.248 221.018,152.373 216.333 C 148.661 210.286,143.225 200.961,141.004 196.833 C 140.215 195.367,139.112 193.342,138.553 192.333 C 137.994 191.325,135.629 186.757,133.297 182.182 L 129.057 173.864 132.857 166.349 C 134.947 162.215,137.230 157.783,137.931 156.500 C 138.632 155.217,139.933 152.817,140.822 151.167 C 141.711 149.517,142.917 147.342,143.502 146.333 C 144.087 145.325,145.438 143.000,146.504 141.167 C 151.244 133.011,162.290 115.506,164.106 113.271 C 165.596 111.437,198.474 110.540,222.167 111.687 M141.733 115.583 C 140.876 116.801,137.309 122.628,133.519 129.000 C 130.552 133.988,129.744 135.394,127.579 139.333 C 127.024 140.342,126.461 141.317,126.327 141.500 C 126.098 141.813,125.423 143.065,121.744 150.000 C 120.917 151.558,120.147 152.940,120.033 153.071 C 119.537 153.638,108.000 122.840,108.000 120.949 C 108.000 120.268,125.219 116.998,139.167 115.030 C 142.593 114.547,142.480 114.523,141.733 115.583 M264.916 115.669 C 275.709 117.232,291.183 120.120,291.795 120.685 C 292.216 121.073,289.021 130.626,284.610 142.167 C 282.814 146.866,280.317 153.103,280.163 153.272 C 280.111 153.329,279.132 151.604,277.988 149.438 C 274.112 142.100,265.866 127.785,261.318 120.500 C 257.752 114.787,257.680 114.667,257.844 114.667 C 257.929 114.667,261.112 115.118,264.916 115.669 M93.011 131.250 C 95.397 138.431,100.928 153.327,102.511 156.833 C 102.759 157.383,103.556 159.258,104.283 161.000 C 106.167 165.518,108.860 171.670,109.440 172.780 C 109.906 173.671,109.867 173.874,108.766 176.280 C 103.153 188.543,94.791 210.162,91.985 219.667 C 91.005 222.987,91.147 222.913,87.763 221.869 C 48.846 209.857,25.658 194.216,22.117 177.586 C 18.715 161.613,37.284 144.270,71.833 131.151 C 77.362 129.052,89.364 125.128,90.550 125.031 C 90.762 125.014,91.868 127.810,93.011 131.250 M314.575 126.524 C 325.335 129.852,333.051 132.803,341.831 136.947 C 349.156 140.404,359.939 146.774,362.417 149.107 C 362.647 149.323,363.584 150.100,364.500 150.833 C 371.483 156.421,376.516 163.659,377.883 170.080 C 381.354 186.378,361.457 204.465,325.833 217.397 C 319.660 219.638,309.381 222.825,309.132 222.576 C 309.052 222.496,307.880 219.146,306.528 215.132 C 303.628 206.522,299.453 195.296,297.491 190.833 C 297.250 190.283,296.230 187.883,295.226 185.500 C 294.222 183.117,292.652 179.501,291.738 177.465 L 290.076 173.764 291.077 171.632 C 294.168 165.045,299.018 153.318,302.562 143.863 C 303.767 140.649,308.984 125.423,308.997 125.083 C 309.005 124.854,310.051 125.124,314.575 126.524 M192.667 139.653 C 174.390 143.562,162.483 161.021,165.491 179.500 C 168.932 200.640,190.633 213.730,211.071 206.994 C 216.584 205.178,220.979 202.418,225.122 198.171 C 249.034 173.661,226.195 132.482,192.667 139.653 M121.854 197.917 C 125.365 204.493,126.086 205.818,127.430 208.167 C 128.165 209.450,129.397 211.625,130.169 213.000 C 131.822 215.943,138.723 227.374,140.861 230.710 L 142.350 233.033 141.259 232.855 C 140.658 232.757,137.467 232.293,134.167 231.824 C 121.793 230.065,108.000 227.362,108.000 226.696 C 108.000 225.267,119.362 194.333,119.887 194.333 C 119.917 194.333,120.802 195.946,121.854 197.917 M282.764 200.833 C 287.765 213.436,292.288 226.530,291.794 226.980 C 291.179 227.541,272.176 231.055,263.833 232.151 C 261.633 232.439,259.339 232.757,258.735 232.856 L 257.636 233.036 258.777 231.268 C 263.521 223.920,273.266 207.185,277.821 198.566 C 279.061 196.219,280.115 194.344,280.163 194.399 C 280.211 194.455,281.381 197.350,282.764 200.833 M119.333 246.991 C 129.434 248.766,139.520 250.186,149.251 251.202 L 155.001 251.803 155.844 253.076 C 156.307 253.776,157.469 255.387,158.426 256.656 C 159.384 257.926,160.685 259.685,161.318 260.565 C 161.950 261.446,163.234 263.142,164.169 264.333 C 165.104 265.525,167.208 268.225,168.844 270.333 C 171.760 274.091,177.471 281.007,180.148 284.024 C 180.891 284.862,182.400 286.566,183.500 287.810 C 184.600 289.055,185.985 290.619,186.577 291.287 C 187.976 292.863,188.198 292.433,183.948 296.380 C 181.903 298.279,179.988 300.058,179.693 300.333 C 179.398 300.608,177.733 302.031,175.995 303.494 C 174.256 304.958,172.670 306.308,172.469 306.494 C 172.269 306.681,171.603 307.208,170.988 307.667 C 170.373 308.125,169.412 308.883,168.852 309.352 C 155.705 320.349,137.474 329.321,125.435 330.721 C 98.882 333.807,89.551 300.797,102.041 247.957 L 103.036 243.748 108.435 244.886 C 111.404 245.512,116.308 246.460,119.333 246.991 M297.160 244.417 C 297.254 244.829,297.642 246.517,298.021 248.167 C 310.113 300.842,301.502 332.724,275.688 330.846 C 265.045 330.072,253.377 324.907,236.873 313.667 C 235.685 312.857,230.848 309.204,230.667 308.978 C 230.575 308.865,229.750 308.207,228.833 307.517 C 225.060 304.676,212.333 293.237,212.333 292.685 C 212.333 292.456,212.602 292.137,215.311 289.159 C 223.935 279.678,236.328 264.207,243.623 253.814 L 245.041 251.795 249.270 251.380 C 262.496 250.080,283.474 246.804,293.167 244.524 C 295.000 244.093,296.610 243.724,296.744 243.703 C 296.878 243.683,297.065 244.004,297.160 244.417 M200.000 253.691 C 208.668 253.691,217.265 253.587,219.103 253.461 L 222.446 253.230 221.484 254.532 C 220.954 255.248,220.141 256.295,219.677 256.859 C 219.213 257.423,218.383 258.467,217.833 259.180 C 213.358 264.980,200.470 280.000,199.969 280.000 C 199.823 280.000,198.623 278.762,197.304 277.250 C 195.984 275.737,194.435 273.975,193.861 273.333 C 190.845 269.958,184.935 262.702,177.868 253.697 C 177.554 253.297,177.998 253.262,180.870 253.459 C 182.723 253.587,191.332 253.691,200.000 253.691 " stroke="none" fill="#64dcfc" fill-rule="evenodd"></path><path id="path1" d="" stroke="none" fill="#68dcfc" fill-rule="evenodd"></path><path id="path2" d="" stroke="none" fill="#68dcfc" fill-rule="evenodd"></path><path id="path3" d="" stroke="none" fill="#68dcfc" fill-rule="evenodd"></path><path id="path4" d="" stroke="none" fill="#68dcfc" fill-rule="evenodd"></path></g></svg>